<?xml version="1.0" encoding="utf-8"?>
<!-- Generator: Adobe Illustrator 19.0.0, SVG Export Plug-In . SVG Version: 6.00 Build 0)  -->
<svg version="1.1" id="Camada_1" xmlns="http://www.w3.org/2000/svg" xmlns:xlink="http://www.w3.org/1999/xlink" x="0px" y="0px"
	 viewBox="0 0 400 350" style="enable-background:new 0 0 400 350;" xml:space="preserve">
<style type="text/css">
	.st0{fill:#FFFFFF;}
</style>
<g id="XMLID_5_">
	<title>Layer 1</title>
	<path id="svg_4" class="st0" d="M329.7,77c0,0-25.1-26.6-82.1-30.4v8.4c0,0,31.3-1.8,70,36.3C288.3,70.2,246.6,57,200.3,57
		s-88,13.2-117.2,34.2c38.7-38.1,70-36.3,70-36.3v-8.4C96,50.4,70.9,77,70.9,77C27.5,132.9,25,255.4,25,255.4
		c40.9,49.3,92.4,43,92.4,43l18.9-27.3c-24.4-6.6-41.8-21.7-52.2-33.5c29.2,20.6,70.4,33.5,116.2,33.5s87.1-12.9,116.2-33.5
		c-10.5,11.8-27.9,26.9-52.2,33.5l18.9,27.3c0,0,51.4,6.3,92.4-43C375.6,255.4,373.1,132.9,329.7,77z M145.7,220.8
		c-16.4,0-29.7-14.1-29.7-31.6c0-17.5,13.3-31.6,29.7-31.6s29.7,14.1,29.7,31.6C175.5,206.6,162.1,220.8,145.7,220.8z M254.9,220.8
		c-16.4,0-29.7-14.1-29.7-31.6c0-17.5,13.3-31.6,29.7-31.6s29.7,14.1,29.7,31.6C284.6,206.6,271.3,220.8,254.9,220.8z"/>
	<g id="svg_5">
	</g>
	<g id="svg_6">
	</g>
	<g id="svg_7">
	</g>
	<g id="svg_8">
	</g>
	<g id="svg_9">
	</g>
	<g id="svg_10">
	</g>
	<g id="svg_11">
	</g>
	<g id="svg_12">
	</g>
	<g id="svg_13">
	</g>
	<g id="svg_14">
	</g>
	<g id="svg_15">
	</g>
	<g id="svg_16">
	</g>
	<g id="svg_17">
	</g>
	<g id="svg_18">
	</g>
	<g id="svg_19">
	</g>
</g>
</svg>
